<svg id="Layer_1" enable-background="new 0 0 512 512" viewBox="0 0 512 512" xmlns="http://www.w3.org/2000/svg"><path d="m231.14 200.47c-10.41 0-20.55 1.91-30.15 5.67-3.09 1.21-6.57-.31-7.78-3.4s.31-6.57 3.4-7.77c11-4.31 22.61-6.49 34.53-6.49 26.33 0 51.68 11.1 69.56 30.44 2.25 2.43 2.1 6.23-.33 8.48-1.15 1.07-2.61 1.59-4.07 1.59-1.62 0-3.23-.65-4.41-1.93-15.62-16.9-37.76-26.59-60.75-26.59zm-47.18 164.81c.94.54 1.97.8 2.99.8 2.08 0 4.1-1.08 5.21-3.01 1.65-2.87.67-6.54-2.21-8.19-25.6-14.74-41.5-42.22-41.5-71.72 0-10.41 1.91-20.55 5.67-30.15 1.21-3.09-.31-6.57-3.4-7.77-3.09-1.21-6.57.31-7.78 3.4-4.31 11-6.49 22.61-6.49 34.52-.01 33.79 18.2 65.25 47.51 82.12zm313.04-64.86v44.77c0 9.97-3.89 19.04-10.22 25.8v102.06c0 13.21-10.75 23.96-23.96 23.96h-213.09c-1.58 0-3.13-.16-4.63-.45-4.63.3-9.32.45-13.96.45-57.12 0-110.82-22.24-151.21-62.63-40.39-40.4-62.63-94.1-62.63-151.22 0-38.53 10.32-76.13 29.86-109.05l-30.41-30.41c-1.69-1.69-2.22-4.22-1.34-6.45.88-2.22 2.99-3.71 5.38-3.79l58.69-1.95 1.95-58.69c.08-2.39 1.57-4.5 3.79-5.38s4.76-.35 6.45 1.34l30.41 30.41c32.92-19.55 70.52-29.86 109.05-29.86 31.33 0 61.37 6.59 89.45 19.57 7.13-41.9 43.69-73.9 87.58-73.9 48.99 0 88.84 39.85 88.84 88.84 0 43.5-31.43 79.8-72.78 87.38 13.59 28.53 20.75 60.14 20.75 91.95 0 .94-.02 1.9-.03 2.85h37.65c7.95-.01 14.41 6.46 14.41 14.4zm-14.4-2.41h-252.64c-1.3 0-2.4 1.1-2.4 2.4v44.77c0 8.87 4.5 16.7 11.34 21.34.21.12.41.25.6.39 4 2.55 8.74 4.04 13.82 4.04h72.15v-8.61c0-8.54 6.95-15.49 15.49-15.49h30.65c8.54 0 15.49 6.95 15.49 15.49v8.61h72.15c14.21 0 25.76-11.56 25.76-25.77v-44.77c-.01-1.29-1.11-2.4-2.41-2.4zm-111 60.84h-30.65c-1.89 0-3.49 1.6-3.49 3.49v24.91c0 10.37 8.44 18.81 18.81 18.81s18.81-8.44 18.81-18.81v-24.91c.01-1.89-1.59-3.49-3.48-3.49zm-57.75-97.04c-2.41 0-4.37 1.96-4.37 4.37v19.83h93.6v-19.83c0-2.41-1.96-4.37-4.37-4.37h-16.65-.01-.01zm17.48-157.97c0 42.37 34.47 76.84 76.84 76.84s76.83-34.48 76.83-76.84c0-42.37-34.47-76.84-76.84-76.84s-76.83 34.47-76.83 76.84zm-239.94 31.09 65.36 65.36 1.59-47.88-65.36-65.36zm-56.37 10.07 65.36 65.36 47.88-1.59-65.36-65.36zm193.95 339.97c-2.03-3.52-3.19-7.59-3.19-11.93v-30.64c-85.39-2.83-153.98-73.17-153.98-159.24 0-11.58 1.25-23.13 3.71-34.34.71-3.24 3.92-5.28 7.15-4.57 3.24.71 5.28 3.91 4.57 7.15-2.28 10.36-3.43 21.05-3.43 31.77 0 79.45 63.21 144.4 141.98 147.23v-59.41c-6.33-6.76-10.22-15.83-10.22-25.8v-44.77c0-7.94 6.46-14.4 14.4-14.4h67.52v-19.83c0-9.03 7.34-16.37 16.37-16.37h60.84c-15.33-66.47-74.58-113.98-143.55-113.98-10.71 0-21.4 1.15-31.77 3.43-3.23.71-6.44-1.34-7.15-4.57s1.34-6.44 4.57-7.15c11.21-2.46 22.76-3.71 34.34-3.71 75.52 0 140.26 52.69 155.83 125.98h11.73c9.03 0 16.37 7.35 16.37 16.37v19.83h17.87c.01-.95.03-1.91.03-2.85 0-31.44-7.41-62.66-21.43-90.56-1.12.04-2.25.07-3.38.07-48.98 0-88.84-39.85-88.84-88.84 0-.75.01-1.5.03-2.24-27.58-13.44-57.23-20.27-88.22-20.27-35.34 0-69.85 9.19-100.28 26.64l37.8 37.8c1.17 1.17 1.81 2.78 1.75 4.44l-2.05 61.7 58.04 58.04c2.34 2.34 2.34 6.14 0 8.48-1.17 1.17-2.71 1.76-4.24 1.76-1.54 0-3.07-.59-4.24-1.76l-58.04-58.04-61.7 2.05c-.07 0-.13 0-.2 0-1.59 0-3.12-.63-4.24-1.76l-37.8-37.8c-17.43 30.44-26.62 64.94-26.62 100.28 0 110.57 89.37 200.64 199.67 201.81zm245.81-11.93v-21.44h-76.79c-3.31 0-6-2.69-6-6s2.69-6 6-6h76.79v-60.01c-4.74 2.15-10 3.36-15.54 3.36h-72.15v4.3c0 16.99-13.82 30.81-30.81 30.81s-30.81-13.82-30.81-30.81v-4.3h-72.15c-5.54 0-10.8-1.21-15.54-3.36v93.45c0 6.59 5.36 11.96 11.96 11.96h213.09c6.59 0 11.95-5.36 11.95-11.96zm-87.64-322.68c6.53 0 13.07-2.49 18.04-7.46l3.22-3.22c2.34-2.34 2.34-6.14 0-8.49-2.34-2.34-6.14-2.34-8.49 0l-3.22 3.22c-5.27 5.27-13.84 5.27-19.11 0s-5.27-13.84 0-19.11l17.04-17.04c5.27-5.27 13.84-5.27 19.12 0 2.34 2.34 6.14 2.34 8.48 0s2.34-6.14 0-8.49c-4.8-4.8-11.21-7.45-18.04-7.45s-13.24 2.65-18.04 7.45l-17.04 17.04c-9.95 9.95-9.95 26.14 0 36.08 4.97 4.99 11.51 7.47 18.04 7.47zm30.42-75.03 2.07-2.07c2.54-2.54 5.93-3.94 9.56-3.94s7.02 1.4 9.56 3.94 3.93 5.93 3.93 9.56-1.4 7.02-3.93 9.56l-17.04 17.04c-5.27 5.27-13.84 5.27-19.12 0-2.34-2.34-6.14-2.34-8.49 0-2.34 2.34-2.34 6.14 0 8.48 4.97 4.97 11.51 7.46 18.04 7.46s13.07-2.49 18.04-7.46l17.04-17.04c4.8-4.8 7.45-11.21 7.45-18.04s-2.65-13.24-7.45-18.04-11.21-7.45-18.04-7.45-13.24 2.65-18.04 7.45l-2.07 2.07c-2.34 2.34-2.34 6.14 0 8.49 2.34 2.33 6.14 2.33 8.49-.01z"/></svg>