<svg id="Layer_1" enable-background="new 0 0 512 512" viewBox="0 0 512 512" xmlns="http://www.w3.org/2000/svg"><path d="m134.95 127.54h56.52c3.31 0 6-2.69 6-6v-56.52c0-3.31-2.69-6-6-6h-56.52c-3.31 0-6 2.69-6 6v56.52c0 3.31 2.69 6 6 6zm6-56.52h44.52v44.52h-44.52zm49.85 97.62c0 3.31-2.69 6-6 6h-40.82c-3.31 0-6-2.69-6-6s2.69-6 6-6h40.82c3.31 0 6 2.68 6 6zm0 36.13c0 3.31-2.69 6-6 6h-40.82c-3.31 0-6-2.69-6-6s2.69-6 6-6h40.82c3.31 0 6 2.69 6 6zm0 36.13c0 3.31-2.69 6-6 6h-40.82c-3.31 0-6-2.69-6-6s2.69-6 6-6h40.82c3.31 0 6 2.69 6 6zm0 36.13c0 3.31-2.69 6-6 6h-40.82c-3.31 0-6-2.69-6-6s2.69-6 6-6h40.82c3.31 0 6 2.69 6 6zm0 36.14c0 3.31-2.69 6-6 6h-40.82c-3.31 0-6-2.69-6-6s2.69-6 6-6h40.82c3.31 0 6 2.68 6 6zm0 36.13c0 3.31-2.69 6-6 6h-40.82c-3.31 0-6-2.69-6-6s2.69-6 6-6h40.82c3.31 0 6 2.69 6 6zm14.45-180.66c0-3.31 2.69-6 6-6h122.45c3.31 0 6 2.69 6 6s-2.69 6-6 6h-122.45c-3.32 0-6-2.69-6-6zm0 36.13c0-3.31 2.69-6 6-6h122.45c3.31 0 6 2.69 6 6s-2.69 6-6 6h-122.45c-3.32 0-6-2.69-6-6zm0 36.13c0-3.31 2.69-6 6-6h122.45c3.31 0 6 2.69 6 6s-2.69 6-6 6h-122.45c-3.32 0-6-2.69-6-6zm0 36.13c0-3.31 2.69-6 6-6h122.45c3.31 0 6 2.69 6 6s-2.69 6-6 6h-122.45c-3.32 0-6-2.68-6-6zm211.44 89.91c2.37 2.31 2.42 6.11.11 8.48l-46.23 47.4c-1.13 1.16-2.68 1.81-4.3 1.81-.05 0-.1 0-.15 0-1.67-.04-3.25-.78-4.35-2.03l-27.29-30.99c-2.19-2.49-1.95-6.28.54-8.47s6.28-1.95 8.47.54l23.01 26.13 41.71-42.77c2.31-2.37 6.1-2.41 8.48-.1zm55.59 17.46-13.88-11.62 6.21-17c1.42-3.89 1.06-8-1.01-11.58-2.07-3.59-5.45-5.95-9.53-6.67l-17.82-3.12-3.12-17.83c-.71-4.08-3.08-7.46-6.66-9.53s-7.7-2.43-11.58-1.01l-17 6.21-11.61-13.88c-1.26-1.51-2.81-2.7-4.53-3.53v-194.14c0-.24-.02-.48-.05-.72.21-1.79-.39-3.62-1.71-4.93l-78.89-78.89c-1.33-1.33-3.19-1.93-5-1.7-.26-.03-.52-.06-.79-.06h-181.22c-10.01 0-18.16 8.14-18.16 18.16v19.73h-21.83c-10.01 0-18.16 8.14-18.16 18.16v369.39c0 10.01 8.14 18.16 18.16 18.16h241.57l2.68 15.29c.71 4.08 3.08 7.46 6.66 9.53s7.7 2.43 11.58 1.01l17-6.21 11.62 13.88c2.66 3.17 6.4 4.92 10.53 4.92 4.14 0 7.88-1.75 10.53-4.92l11.62-13.88 17 6.21c3.89 1.42 8 1.06 11.58-1.01s5.95-5.45 6.67-9.53l3.12-17.82 17.82-3.12c4.08-.71 7.46-3.08 9.53-6.66s2.43-7.7 1.01-11.58l-6.21-17 13.88-11.61c3.17-2.66 4.92-6.4 4.92-10.54s-1.76-7.9-4.93-10.56zm-169.43-349.52 58.41 58.41h-58.41zm-194.91-2.33c0-3.39 2.76-6.16 6.16-6.16h176.75v72.89c0 3.31 2.69 6 6 6h72.89v189.58c-1.72.84-3.27 2.03-4.53 3.53l-11.62 13.88-17-6.21c-3.89-1.42-8-1.06-11.58 1.01-.05.03-.1.06-.15.09h-113.61c-3.31 0-6 2.69-6 6s2.69 6 6 6h106.65l-2.67 15.26-17.82 3.12c-3.72.65-6.84 2.68-8.94 5.75h-77.22c-3.31 0-6 2.69-6 6s2.69 6 6 6h75.47c.05.16.09.33.15.49l6.21 17-13.88 11.62c-3.17 2.66-4.92 6.4-4.92 10.53 0 4.14 1.75 7.88 4.92 10.53l3.14 2.63h-168.25c-3.39 0-6.16-2.76-6.16-6.16v-369.38zm-40 407.28v-369.39c0-3.39 2.76-6.16 6.16-6.16h21.84v337.66c0 10.01 8.14 18.16 18.16 18.16h177.88l-5.11 13.98c-1.42 3.88-1.06 8 1.01 11.58.07.11.14.21.21.32h-213.99c-3.4.01-6.16-2.75-6.16-6.15zm396.63-43.56-17.11 14.32c-1.94 1.62-2.65 4.29-1.78 6.66l7.65 20.95c.2.56.17.95-.13 1.47-.3.51-.62.74-1.21.84l-21.97 3.85c-2.49.44-4.44 2.39-4.88 4.88l-3.85 21.97c-.1.58-.33.91-.84 1.21-.51.29-.91.33-1.46.13l-20.95-7.66c-2.37-.87-5.04-.15-6.66 1.79l-14.32 17.11c-.38.45-.74.62-1.33.62s-.95-.17-1.33-.62l-14.32-17.11c-1.16-1.39-2.86-2.15-4.6-2.15-.69 0-1.39.12-2.06.36l-20.95 7.66c-.55.2-.95.17-1.47-.13-.51-.29-.74-.62-.84-1.2l-3.85-21.97c-.44-2.49-2.39-4.44-4.88-4.88l-21.97-3.85c-.58-.1-.91-.33-1.21-.84s-.33-.91-.13-1.47l7.65-20.95c.87-2.37.15-5.04-1.78-6.66l-17.11-14.32c-.45-.38-.62-.74-.62-1.33s.17-.95.62-1.33l17.11-14.32c1.94-1.62 2.65-4.29 1.78-6.66l-7.65-20.95c-.2-.56-.17-.95.13-1.46s.62-.74 1.21-.84l21.97-3.85c2.49-.44 4.44-2.39 4.88-4.88l3.85-21.97c.1-.58.33-.91.84-1.21s.91-.33 1.46-.13l20.95 7.65c2.37.87 5.04.15 6.66-1.78l14.32-17.11c.45-.54 1.03-.62 1.33-.62s.88.08 1.33.62l14.32 17.11c1.62 1.94 4.29 2.65 6.66 1.78l20.95-7.65c.56-.2.96-.17 1.47.13s.74.62.84 1.21l3.85 21.97c.44 2.49 2.39 4.44 4.88 4.88l21.97 3.85c.58.1.91.33 1.2.84s.33.91.13 1.46l-7.65 20.95c-.87 2.37-.15 5.04 1.78 6.66l17.11 14.32c.45.38.62.74.62 1.33.02.58-.15.94-.61 1.32z"/></svg>