<svg id="Layer_1" enable-background="new 0 0 512 512" viewBox="0 0 512 512" xmlns="http://www.w3.org/2000/svg"><path d="m173.78 139.11c2.34 2.34 2.34 6.14 0 8.49l-28.83 28.83c-1.17 1.17-2.71 1.76-4.24 1.76s-3.07-.59-4.24-1.76l-12.95-12.95c-2.34-2.34-2.34-6.14 0-8.49 2.34-2.34 6.14-2.34 8.49 0l8.71 8.71 24.59-24.59c2.33-2.34 6.13-2.34 8.47 0zm135.18 12.66h-93.65c-3.31 0-6 2.69-6 6s2.69 6 6 6h93.65c3.31 0 6-2.69 6-6s-2.69-6-6-6zm-143.66 58.44-24.59 24.59-8.71-8.71c-2.34-2.34-6.14-2.34-8.49 0-2.34 2.34-2.34 6.14 0 8.49l12.95 12.95c1.17 1.17 2.71 1.76 4.24 1.76s3.07-.59 4.24-1.76l28.83-28.83c2.34-2.34 2.34-6.14 0-8.49-2.33-2.34-6.13-2.34-8.47 0zm143.66 12.66h-93.65c-3.31 0-6 2.69-6 6s2.69 6 6 6h93.65c3.31 0 6-2.69 6-6s-2.69-6-6-6zm-143.66 58.45-24.59 24.59-8.71-8.71c-2.34-2.34-6.14-2.34-8.49 0-2.34 2.34-2.34 6.14 0 8.48l12.95 12.95c1.17 1.17 2.71 1.76 4.24 1.76 1.54 0 3.07-.59 4.24-1.76l28.83-28.83c2.34-2.34 2.34-6.14 0-8.48-2.33-2.35-6.13-2.35-8.47 0zm124.02 12.65h-74.01c-3.31 0-6 2.69-6 6s2.69 6 6 6h74.01c3.31 0 6-2.69 6-6s-2.68-6-6-6zm-124.02 58.45-24.59 24.59-8.71-8.71c-2.34-2.34-6.14-2.34-8.49 0-2.34 2.34-2.34 6.14 0 8.48l12.95 12.95c1.17 1.17 2.71 1.76 4.24 1.76 1.54 0 3.07-.59 4.24-1.76l28.83-28.83c2.34-2.34 2.34-6.14 0-8.48s-6.13-2.34-8.47 0zm124.02 12.66h-74.01c-3.31 0-6 2.69-6 6s2.69 6 6 6h74.01c3.31 0 6-2.69 6-6s-2.68-6-6-6zm181.01-93.51v219.43c0 3.31-2.69 6-6 6h-150.57c-3.31 0-6-2.69-6-6v-22.14h-239.47c-14.68 0-26.62-11.94-26.62-26.62v-355.63c0-14.68 11.94-26.62 26.62-26.62h37.05c1.95-7.35 8.63-12.79 16.58-12.79h57.6c3.42-18.46 19.49-32.2 38.84-32.2s35.42 13.74 38.84 32.21h57.6c7.95 0 14.64 5.44 16.58 12.79h37.05c14.68 0 26.62 11.94 26.62 26.62v145.93h48.41c3.31 0 6 2.69 6 6v27.03h14.88c3.3-.01 5.99 2.68 5.99 5.99zm-32.88-27.03h-96.81v21.03h96.81zm-69.03-172.55h-36.47v23.69h21.4c3.31 0 6 2.69 6 6v130.86h23.69v-145.93c0-8.06-6.56-14.62-14.62-14.62zm-251.67 29.19c0 2.85 2.32 5.17 5.17 5.17h192.87c2.85 0 5.17-2.32 5.17-5.17v-36.81c0-2.85-2.32-5.17-5.17-5.17h-62.95c-3.22 0-5.87-2.55-6-5.77-.56-14.57-12.89-26.43-27.48-26.43s-26.92 11.86-27.49 26.44c-.12 3.22-2.77 5.77-6 5.77h-62.95c-2.85 0-5.17 2.32-5.17 5.17zm191.01 355.68v-23.69h-224.4c-3.31 0-6-2.69-6-6v-325.49c0-3.31 2.69-6 6-6h21.4v-23.69h-36.47c-8.06 0-14.62 6.56-14.62 14.62v355.63c0 8.06 6.56 14.62 14.62 14.62zm6-191.29h14.88v-27.03c0-3.31 2.69-6 6-6h12.72v-124.86h-16.68c-2.57 6.25-8.72 10.67-15.88 10.67h-192.88c-7.17 0-13.32-4.42-15.88-10.67h-16.68v313.49h218.4v-149.6c0-3.31 2.68-6 6-6zm99.53 166.92h-48.5v52.51h48.5zm45.04-154.92h-138.57v207.43h33.03v-58.51c0-3.31 2.69-6 6-6h60.5c3.31 0 6 2.69 6 6v58.51h33.03v-207.43zm-112.98 44.86c3.31 0 6-2.69 6-6v-20.53c0-3.31-2.69-6-6-6s-6 2.69-6 6v20.53c0 3.32 2.69 6 6 6zm43.69 0c3.31 0 6-2.69 6-6v-20.53c0-3.31-2.69-6-6-6s-6 2.69-6 6v20.53c0 3.32 2.69 6 6 6zm43.69 0c3.31 0 6-2.69 6-6v-20.53c0-3.31-2.69-6-6-6s-6 2.69-6 6v20.53c0 3.32 2.69 6 6 6zm-87.38 42.87c3.31 0 6-2.69 6-6v-20.53c0-3.31-2.69-6-6-6s-6 2.69-6 6v20.53c0 3.31 2.69 6 6 6zm43.69 0c3.31 0 6-2.69 6-6v-20.53c0-3.31-2.69-6-6-6s-6 2.69-6 6v20.53c0 3.31 2.69 6 6 6zm43.69 0c3.31 0 6-2.69 6-6v-20.53c0-3.31-2.69-6-6-6s-6 2.69-6 6v20.53c0 3.31 2.69 6 6 6zm-87.38 42.86c3.31 0 6-2.69 6-6v-20.53c0-3.31-2.69-6-6-6s-6 2.69-6 6v20.53c0 3.32 2.69 6 6 6zm43.69 0c3.31 0 6-2.69 6-6v-20.53c0-3.31-2.69-6-6-6s-6 2.69-6 6v20.53c0 3.32 2.69 6 6 6zm43.69 0c3.31 0 6-2.69 6-6v-20.53c0-3.31-2.69-6-6-6s-6 2.69-6 6v20.53c0 3.32 2.69 6 6 6z"/></svg>